<svg xmlns="http://www.w3.org/2000/svg" width="360" height="356" viewBox="0 0 360 356">
  <defs>
    <style>
      text { font-family: -apple-system, BlinkMacSystemFont, 'Segoe UI', sans-serif; }
    </style>
  </defs>

  <!-- Card background -->
  <rect width="360" height="356" rx="12" fill="#fff" stroke="#e0e0e0" stroke-width="1"/>

  <!-- Header -->
  <text x="20" y="38" font-size="15" font-weight="500" fill="#212121">Joule Sous Vide</text>
  <!-- Status dot (green, cooking) -->
  <circle cx="336" cy="32" r="5" fill="#4caf50" opacity="0.9"/>

  <!-- Divider -->
  <line x1="20" y1="52" x2="340" y2="52" stroke="#e0e0e0" stroke-width="1"/>

  <!-- Current temp big display -->
  <text x="180" y="120" font-size="52" font-weight="300" fill="#03a9f4" text-anchor="middle">75.2°F</text>
  <text x="180" y="140" font-size="12" fill="#727272" text-anchor="middle">Current temperature</text>

  <!-- Divider -->
  <line x1="20" y1="160" x2="340" y2="160" stroke="#e0e0e0" stroke-width="1"/>

  <!-- Target temp row -->
  <text x="20" y="192" font-size="13" fill="#727272">Target temp</text>
  <!-- minus button -->
  <rect x="210" y="176" width="32" height="32" rx="16" fill="#e0e0e0"/>
  <text x="226" y="197" font-size="18" fill="#212121" text-anchor="middle">−</text>
  <!-- value -->
  <text x="272" y="197" font-size="15" font-weight="500" fill="#212121" text-anchor="middle">167°F</text>
  <!-- plus button -->
  <rect x="304" y="176" width="32" height="32" rx="16" fill="#e0e0e0"/>
  <text x="320" y="197" font-size="18" fill="#212121" text-anchor="middle">+</text>

  <!-- Cook time row -->
  <text x="20" y="234" font-size="13" fill="#727272">Cook time</text>
  <!-- minus button -->
  <rect x="210" y="218" width="32" height="32" rx="16" fill="#e0e0e0"/>
  <text x="226" y="239" font-size="18" fill="#212121" text-anchor="middle">−</text>
  <!-- value -->
  <text x="272" y="239" font-size="15" font-weight="500" fill="#212121" text-anchor="middle">1h 30m</text>
  <!-- plus button -->
  <rect x="304" y="218" width="32" height="32" rx="16" fill="#e0e0e0"/>
  <text x="320" y="239" font-size="18" fill="#212121" text-anchor="middle">+</text>

  <!-- Unit toggle row -->
  <text x="20" y="276" font-size="13" fill="#727272">Unit</text>
  <!-- °F button (active) -->
  <rect x="256" y="260" width="40" height="28" fill="#03a9f4"/>
  <text x="276" y="279" font-size="12" font-weight="500" fill="#fff" text-anchor="middle">°F</text>
  <!-- °C button -->
  <rect x="296" y="260" width="40" height="28" fill="transparent" stroke="#e0e0e0"/>
  <text x="316" y="279" font-size="12" font-weight="500" fill="#727272" text-anchor="middle">°C</text>
  <rect x="256" y="260" width="80" height="28" rx="14" fill="none" stroke="#e0e0e0"/>

  <!-- Stop button -->
  <rect x="20" y="292" width="320" height="44" rx="22" fill="#f44336"/>
  <text x="180" y="319" font-size="15" font-weight="600" fill="#fff" text-anchor="middle">Stop cooking</text>
</svg>
